<?xml version="1.0" encoding="UTF-8"?>
<svg id="Calque_1" xmlns="http://www.w3.org/2000/svg" xmlns:xlink="http://www.w3.org/1999/xlink" version="1.1" viewBox="0 0 398 304">
  <!-- Generator: Adobe Illustrator 29.2.0, SVG Export Plug-In . SVG Version: 2.1.0 Build 108)  -->
  <defs>
    <style>
      .st0 {
        fill: #2c5f9e;
      }

      .st0, .st1 {
        stroke: #fff;
        stroke-miterlimit: 10;
        stroke-width: 10.6px;
      }

      .st2, .st3, .st4, .st5 {
        isolation: isolate;
      }

      .st2, .st6, .st1 {
        fill: #1f5396;
      }

      .st3, .st7, .st5 {
        fill: #fff;
      }

      .st3, .st5 {
        font-family: Arial-BoldMT, Arial;
        font-size: 49.1px;
        font-weight: 700;
      }

      .st8 {
        letter-spacing: .6em;
      }

      .st9 {
        letter-spacing: .5em;
      }

      .st5 {
        letter-spacing: .4em;
      }
    </style>
  </defs>
  <rect class="st2" x="3.5" y="9" width="390.5" height="285.2" rx="24.5" ry="24.5"/>
  <circle class="st6" cx="137" cy="58.9" r="33.7"/>
  <circle class="st6" cx="329" cy="58.9" r="33.7"/>
  <circle class="st6" cx="232.5" cy="58.5" r="33.7" transform="translate(126.9 273.7) rotate(-78)"/>
  <path class="st7" d="M97.2,120.4h78.9v11.2h-78.9v-11.2ZM97.2,176.6h78.9v-11.2h-78.9v11.2ZM198.6,131.7h67.7v-11.2h-67.7v11.2h0ZM198.6,176.6h67.7v-11.2h-67.7v11.2h0ZM288.5,131.7h78.9v-11.2h-78.9v11.2h0ZM288.5,176.6h78.9v-11.2h-78.9v11.2h0ZM97.2,221.8h78.9v-11.2h-78.9v11.2ZM198.6,221.8h67.7v-11.2h-67.7v11.2h0ZM288.5,221.8h78.9v-11.2h-78.9v11.2h0ZM97.2,266.8h78.9v-11.2h-78.9v11.2ZM198.6,266.8h67.7v-11.2h-67.7v11.2h0ZM288.5,266.8h78.9v-11.2h-78.9v11.2h0ZM271.7,58.5c0,21.7-17.8,39.5-39.5,39.5s-39.5-17.8-39.5-39.5,17.8-39.5,39.5-39.5,39.5,17.8,39.5,39.5ZM260.5,58.5c0-15.5-12.7-28.2-28.2-28.2s-28.2,12.7-28.2,28.2,12.7,28.2,28.2,28.2,28.2-12.7,28.2-28.2ZM175.9,58.5c0,21.7-17.8,39.5-39.5,39.5s-39.5-17.8-39.5-39.5,17.8-39.5,39.5-39.5,39.5,17.8,39.5,39.5ZM164.6,58.5c0-15.5-12.7-28.2-28.2-28.2s-28.2,12.7-28.2,28.2,12.7,28.2,28.2,28.2,28.2-12.7,28.2-28.2ZM288.5,58.5c0-21.7,17.8-39.5,39.5-39.5s39.5,17.8,39.5,39.5-17.8,39.5-39.5,39.5-39.5-17.8-39.5-39.5ZM299.8,58.5c0,15.5,12.7,28.2,28.2,28.2s28.2-12.7,28.2-28.2-12.7-28.2-28.2-28.2-28.2,12.7-28.2,28.2Z"/>
  <circle class="st1" cx="46.5" cy="125.9" r="34.1"/>
  <circle class="st0" cx="45.8" cy="216.5" r="34.1"/>
  <g class="st4">
    <g class="st4">
      <text class="st5" transform="translate(281.1 74.4)"><tspan x="0" y="0" xml:space="preserve"> 3</tspan></text>
    </g>
    <g class="st4">
      <text class="st3" transform="translate(123.1 74.4)"><tspan class="st8" x="0" y="0">1</tspan><tspan class="st9" x="56.8" y="0"> </tspan><tspan class="st8" x="95" y="0">2</tspan></text>
    </g>
  </g>
  <g class="st4">
    <g class="st4">
      <text class="st5" transform="translate(30.3 142.1)"><tspan x="0" y="0">A</tspan></text>
    </g>
  </g>
  <g class="st4">
    <g class="st4">
      <text class="st5" transform="translate(30.5 234.1)"><tspan x="0" y="0">B</tspan></text>
    </g>
  </g>
</svg>